<?xml version="1.0" ?><!DOCTYPE svg  PUBLIC '-//W3C//DTD SVG 1.1//EN'  'http://www.w3.org/Graphics/SVG/1.1/DTD/svg11.dtd'><svg enable-background="new 0 0 512 512" height="512px" id="Layer_1" version="1.1" viewBox="0 0 512 512" width="512px" xml:space="preserve" xmlns="http://www.w3.org/2000/svg" xmlns:xlink="http://www.w3.org/1999/xlink"><g id="github"><path d="M254.5,16.5c-131.996,0-239,107.004-239,239s107.004,239,239,239s239-107.004,239-239S386.496,16.5,254.5,16.5z    M412.892,413.892C370.584,456.2,314.333,479.5,254.5,479.5c-59.833,0-116.084-23.3-158.392-65.608   C53.8,371.584,30.5,315.333,30.5,255.5c0-59.833,23.3-116.084,65.608-158.392C138.416,54.8,194.667,31.5,254.5,31.5   c59.833,0,116.084,23.3,158.392,65.608C455.2,139.416,478.5,195.667,478.5,255.5C478.5,315.333,455.2,371.584,412.892,413.892z"/><path d="M254,118.205c-75.969,0-137.563,61.594-137.563,137.563c0,60.788,39.412,112.341,94.079,130.527   c6.877,1.26,9.387-2.989,9.387-6.616c0-3.275-0.126-14.122-0.193-25.608c-38.253,8.312-46.339-16.221-46.339-16.221   c-6.263-15.886-15.273-20.117-15.273-20.117c-12.502-8.53,0.948-8.363,0.948-8.363c13.812,0.957,21.083,14.173,21.083,14.173   c12.275,21.024,32.208,14.945,40.033,11.419c1.25-8.866,4.81-14.945,8.732-18.371c-30.537-3.476-62.66-15.281-62.66-67.992   c0-15.029,5.365-27.287,14.147-36.918c-1.402-3.493-6.138-17.489,1.36-36.422c0,0,11.536-3.694,37.833,14.106   c10.965-3.065,22.728-4.576,34.424-4.626c11.687,0.051,23.459,1.578,34.441,4.643c26.247-17.817,37.8-14.106,37.8-14.106   c7.523,18.95,2.788,32.93,1.377,36.406c8.816,9.63,14.139,21.889,14.139,36.918c0,52.846-32.174,64.483-62.82,67.892   c4.954,4.265,9.337,12.628,9.337,25.457c0,18.388-0.185,33.215-0.185,37.749c0,3.661,2.502,7.943,9.471,6.599   c54.626-18.22,94.004-69.772,94.004-130.527C391.563,179.799,329.969,118.205,254,118.205z"/></g></svg>