<?xml version="1.0" ?><svg height="48px" id="svg1307" width="48px" xmlns="http://www.w3.org/2000/svg" xmlns:cc="http://creativecommons.org/ns#" xmlns:dc="http://purl.org/dc/elements/1.1/" xmlns:inkscape="http://www.inkscape.org/namespaces/inkscape" xmlns:rdf="http://www.w3.org/1999/02/22-rdf-syntax-ns#" xmlns:sodipodi="http://sodipodi.sourceforge.net/DTD/sodipodi-0.dtd" xmlns:svg="http://www.w3.org/2000/svg" xmlns:xlink="http://www.w3.org/1999/xlink"><defs id="defs1309"><linearGradient id="linearGradient3837"><stop id="stop3839" offset="0" style="stop-color:#000000;stop-opacity:1;"/><stop id="stop3841" offset="1" style="stop-color:#ffffff;stop-opacity:0.78350514;"/></linearGradient><linearGradient id="linearGradient2257"><stop id="stop2259" offset="0" style="stop-color:#ef2929"/><stop id="stop2261" offset="1" style="stop-color:#cc0000"/></linearGradient><linearGradient id="linearGradient3340"><stop id="stop3342" offset="0" style="stop-color:#ffffff;stop-opacity:1;"/><stop id="stop3344" offset="1" style="stop-color:#ffffff;stop-opacity:0;"/></linearGradient><linearGradient id="linearGradient8662"><stop id="stop8664" offset="0" style="stop-color:#000000;stop-opacity:1;"/><stop id="stop8666" offset="1" style="stop-color:#000000;stop-opacity:0;"/></linearGradient><radialGradient cx="24.837126" cy="36.421127" fx="24.837126" fy="36.421127" gradientTransform="matrix(1,0,0,0.536723,-3.241652e-13,16.87306)" gradientUnits="userSpaceOnUse" id="radialGradient2228" r="15.644737" xlink:href="#linearGradient8662"/><radialGradient cx="21.929186" cy="-3.2182934" fx="21.929186" fy="-3.2182934" gradientTransform="matrix(3.658819,-3.13388e-16,1.719536e-16,2.080782,-62.4164,12.76204)" gradientUnits="userSpaceOnUse" id="radialGradient1368" r="13" xlink:href="#linearGradient3340"/><radialGradient cx="22.5" cy="28.116049" fx="22.5" fy="28.116049" gradientTransform="matrix(2.365562,-4.942242e-16,5.359766e-16,2.202845,-30.72517,-34.23996)" gradientUnits="userSpaceOnUse" id="radialGradient2263" r="14.537862" xlink:href="#linearGradient2257"/><linearGradient gradientUnits="userSpaceOnUse" id="linearGradient3843" x1="21.702389" x2="21.816015" xlink:href="#linearGradient3837" y1="8.9115314" y2="35.546108"/><radialGradient cx="22.5" cy="28.116049" fx="22.5" fy="28.116049" gradientTransform="matrix(2.365562,-4.942242e-16,5.359766e-16,2.202845,-30.72517,-34.23996)" gradientUnits="userSpaceOnUse" id="radialGradient3845" r="14.537862" xlink:href="#linearGradient2257"/></defs><g id="layer1" style="display:inline"><path d="M 36.5 22 A 14 13 0 1 1  8.5,22 A 14 13 0 1 1  36.5 22 z" id="path3835" style="opacity:0.15;color:#000000;fill:url(#radialGradient3845);fill-opacity:1;fill-rule:evenodd;stroke:url(#linearGradient3843);stroke-width:3.13661647;stroke-linecap:square;stroke-linejoin:round;marker:none;marker-start:none;marker-mid:none;marker-end:none;stroke-miterlimit:4;stroke-dasharray:none;stroke-dashoffset:0;stroke-opacity:1;visibility:visible;display:inline;overflow:visible" transform="matrix(0.920697,0,0,0.99358,3.679484,1.641236)"/><path d="M 40.481863 36.421127 A 15.644737 8.3968935 0 1 1  9.1923885,36.421127 A 15.644737 8.3968935 0 1 1  40.481863 36.421127 z" id="path2226" style="opacity:0.03999999;color:#000000;fill:url(#radialGradient2228);fill-opacity:1;fill-rule:evenodd;stroke:none;stroke-width:1;stroke-linecap:butt;stroke-linejoin:miter;marker:none;marker-start:none;marker-mid:none;marker-end:none;stroke-miterlimit:10;stroke-dasharray:none;stroke-dashoffset:0;stroke-opacity:1;visibility:visible;display:inline;overflow:visible" transform="matrix(1.150533,0,0,0.565685,-4.5765,16.55285)"/><path d="M 36.5 22 A 14 13 0 1 1  8.5,22 A 14 13 0 1 1  36.5 22 z" id="path2525" style="color:#000000;fill:url(#radialGradient2263);fill-opacity:1.0;fill-rule:evenodd;stroke:#cc0000;stroke-width:1.0757246;stroke-linecap:square;stroke-linejoin:round;marker:none;marker-start:none;marker-mid:none;marker-end:none;stroke-miterlimit:4;stroke-dasharray:none;stroke-dashoffset:0;stroke-opacity:1;visibility:visible;display:inline;overflow:visible" transform="matrix(0.894862,0,0,0.9657,3.855776,2.660348)"/><path d="M 38 24 A 14 14 0 1 1  10,24 A 14 14 0 1 1  38 24 z" id="path2527" style="color:#000000;fill:none;fill-opacity:1;fill-rule:evenodd;stroke:#f77d7d;stroke-width:1.21739173;stroke-linecap:square;stroke-linejoin:round;marker:none;marker-start:none;marker-mid:none;marker-end:none;stroke-miterlimit:4;stroke-dasharray:none;stroke-dashoffset:0;stroke-opacity:1;visibility:visible;display:inline;overflow:visible" transform="matrix(0.821429,0,0,0.821429,4.285117,4.191455)"/><path d="M 23.84315,11.90574 C 17.563618,11.985335 12.438727,16.897799 12.03065,23.09324 C 18.148473,25.61002 25.90107,21.642017 35.172655,19.711354 C 34.484245,16.962785 30.617935,11.90574 23.9994,11.90574 C 23.947693,11.90574 23.894703,11.905087 23.84315,11.90574 z " id="path2529" style="opacity:0.6;fill:url(#radialGradient1368);fill-opacity:1;fill-rule:evenodd;stroke:none;stroke-width:0.25pt;stroke-linecap:butt;stroke-linejoin:miter;stroke-opacity:1;display:inline"/></g></svg>