<?xml version="1.0" ?><svg style="enable-background:new 0 0 48 48;" version="1.1" viewBox="0 0 48 48" xml:space="preserve" xmlns="http://www.w3.org/2000/svg" xmlns:xlink="http://www.w3.org/1999/xlink"><g id="Icons"><g><path d="M30.57464,25.95474v4.25556c0,1.17925-0.96135,2.12778-2.12778,2.12778H11.2708    c-1.16643,0-2.11496-0.94853-2.11496-2.12778V17.7897c0-1.17925,0.94853-2.12778,2.11496-2.12778h17.17606    c1.16643,0,2.12778,0.94853,2.12778,2.12778v4.2812" style="fill:#F4F4F4;"/><linearGradient gradientUnits="userSpaceOnUse" id="SVGID_1_" x1="34.7094" x2="34.7094" y1="31.17346" y2="15.0741"><stop offset="0.09694" style="stop-color:#FFD879"/><stop offset="0.15387" style="stop-color:#FCCB76"/><stop offset="0.25828" style="stop-color:#F5AA6C"/><stop offset="0.39756" style="stop-color:#E9755E"/><stop offset="0.44898" style="stop-color:#E45F58"/><stop offset="0.67857" style="stop-color:#D22A9C"/><stop offset="1" style="stop-color:#6968DF"/></linearGradient><path d="M30.57464,26.07546V22.0709l4.62985-3.53602    c0.16327-0.11661,0.28138-0.15711,0.47364-0.15711H38.011c0.46144,0,0.83316,0.37172,0.83316,0.83317v2.1406v5.30663v2.12778    c0,0.46145-0.37172,0.83317-0.83316,0.83317h-2.33287c-0.19227,0-0.3103-0.03481-0.4999-0.17945l-4.60359-3.48492" style="fill:url(#SVGID_1_);"/><path d="    M30.57464,25.95474v4.25556c0,1.17925-0.96135,2.12778-2.12778,2.12778H11.2708c-1.16643,0-2.11496-0.94853-2.11496-2.12778    V17.7897c0-1.17925,0.94853-2.12778,2.11496-2.12778h17.17606c1.16643,0,2.12778,0.94853,2.12778,2.12778v4.2812" style="fill:none;stroke:#303030;stroke-width:0.7;stroke-linecap:round;stroke-linejoin:round;stroke-miterlimit:10;"/><path d="    M30.57464,26.07546V22.0709l4.62985-3.53602c0.16327-0.11661,0.28138-0.15711,0.47364-0.15711H38.011    c0.46144,0,0.83316,0.37172,0.83316,0.83317v2.1406v5.30663v2.12778c0,0.46145-0.37172,0.83317-0.83316,0.83317h-2.33287    c-0.19227,0-0.3103-0.03481-0.4999-0.17945l-4.60359-3.48492" style="fill:none;stroke:#303030;stroke-width:0.7;stroke-linecap:round;stroke-linejoin:round;stroke-miterlimit:10;"/><linearGradient gradientUnits="userSpaceOnUse" id="SVGID_2_" x1="19.86949" x2="19.86949" y1="29.19656" y2="18.53865"><stop offset="0.09694" style="stop-color:#FFD879"/><stop offset="0.15387" style="stop-color:#FCCB76"/><stop offset="0.25828" style="stop-color:#F5AA6C"/><stop offset="0.39756" style="stop-color:#E9755E"/><stop offset="0.44898" style="stop-color:#E45F58"/><stop offset="0.67857" style="stop-color:#D22A9C"/><stop offset="1" style="stop-color:#6968DF"/></linearGradient><path d="M19.86946,19.78577c-2.32996,0-4.20996,1.89001-4.20996,4.21002    c0,2.32996,1.88001,4.20996,4.20996,4.20996c2.32001,0,4.21002-1.88,4.21002-4.20996    C24.07948,21.67579,22.18946,19.78577,19.86946,19.78577z M19.86946,26.39576c-1.32996,0-2.40997-1.07001-2.40997-2.39996    c0-1.32001,1.08002-2.40002,2.40997-2.40002c1.32001,0,2.40002,1.08002,2.40002,2.40002    C22.26948,25.32575,21.18946,26.39576,19.86946,26.39576z" style="fill:url(#SVGID_2_);"/><circle cx="19.86524" cy="23.99844" r="4.21049" style="fill:none;stroke:#303030;stroke-width:0.7;stroke-linecap:round;stroke-linejoin:round;stroke-miterlimit:10;"/><circle cx="19.86524" cy="23.99844" r="2.40228" style="fill:none;stroke:#303030;stroke-width:0.7;stroke-linecap:round;stroke-linejoin:round;stroke-miterlimit:10;"/><line style="fill:none;stroke:#303030;stroke-width:0.7;stroke-linecap:round;stroke-linejoin:round;stroke-miterlimit:10;" x1="15.30362" x2="21.07546" y1="17.41522" y2="17.41522"/><line style="fill:none;stroke:#303030;stroke-width:0.7;stroke-linecap:round;stroke-linejoin:round;stroke-miterlimit:10;" x1="23.03044" x2="24.42686" y1="17.41522" y2="17.41522"/></g></g></svg>